<?xml version="1.0" encoding="UTF-8" standalone="no"?>
<!-- Created with Inkscape (http://www.inkscape.org/) -->

<svg xmlns:dc="http://purl.org/dc/elements/1.1/" xmlns:cc="http://creativecommons.org/ns#" xmlns:rdf="http://www.w3.org/1999/02/22-rdf-syntax-ns#" xmlns:svg="http://www.w3.org/2000/svg" xmlns="http://www.w3.org/2000/svg" xmlns:xlink="http://www.w3.org/1999/xlink" xmlns:sodipodi="http://sodipodi.sourceforge.net/DTD/sodipodi-0.dtd" xmlns:inkscape="http://www.inkscape.org/namespaces/inkscape" width="1110" height="523" viewBox="0 0 1110 523" id="svg" version="1.1" inkscape:version="0.92.2 (5c3e80d, 2017-08-06)" sodipodi:docname="header.svg" inkscape:export-xdpi="96" inkscape:export-ydpi="96" inkscape:export-filename="D:\thaky\Development\Git\Web\voidinc.net\img\logo\header.png">
  <defs id="defs">
    <linearGradient inkscape:collect="always" id="linearGradient6278">
      <stop offset="0" id="stop0" style="stop-color:black;stop-opacity:1" />
      <stop id="stop1" offset="0.25" style="stop-color:black;stop-opacity:1" />
      <stop offset="0.25" id="stop2" style="stop-color:white;stop-opacity:1" />
      <stop id="stop3" offset="0.5" style="stop-color:white;stop-opacity:1" />
      <stop offset="0.5" id="stop4" style="stop-color:red;stop-opacity:1" />
      <stop id="stop5" offset="0.75" style="stop-color:red;stop-opacity:1" />
      <stop offset="0.75" id="stop6" style="stop-color:blue;stop-opacity:1" />
      <stop offset="1" id="stop7" style="stop-color:blue;stop-opacity:1" />
    </linearGradient>
    <linearGradient inkscape:collect="always" xlink:href="#linearGradient6278" id="linearGradient6284" x1="45.130108" y1="37.701935" x2="45.130108" y2="53.857239" gradientUnits="userSpaceOnUse" gradientTransform="translate(319.99999,363)" />
    <filter inkscape:collect="always" style="color-interpolation-filters:sRGB" id="filter1938" x="-0.012" width="1.024" y="-0.012" height="1.024">
      <feGaussianBlur inkscape:collect="always" stdDeviation="4.9" id="feGaussianBlur1940" />
    </filter>
    <filter inkscape:collect="always" style="color-interpolation-filters:sRGB" id="filter1990" x="-0.0088351648" width="1.0176703" y="-0.018697673" height="1.0373954">
      <feGaussianBlur inkscape:collect="always" stdDeviation="3.35" id="feGaussianBlur1992" />
    </filter>
    <filter inkscape:collect="always" style="color-interpolation-filters:sRGB" id="filter2022" x="-0.0076250001" width="1.01525" y="-0.028153846" height="1.0563077">
      <feGaussianBlur inkscape:collect="always" stdDeviation="3.05" id="feGaussianBlur2024" />
    </filter>
    <filter inkscape:collect="always" style="color-interpolation-filters:sRGB" id="filter2026" x="-0.0062727272" width="1.0125455" y="-0.138" height="1.276">
      <feGaussianBlur inkscape:collect="always" stdDeviation="0.8625" id="feGaussianBlur2028" />
    </filter>
    <filter inkscape:collect="always" style="color-interpolation-filters:sRGB" id="filter2038" x="-0.006629209" width="1.0132585" y="-0.063214697" height="1.1264294">
      <feGaussianBlur inkscape:collect="always" stdDeviation="2.3687668" id="feGaussianBlur2040" />
    </filter>
    <filter inkscape:collect="always" style="color-interpolation-filters:sRGB" id="filter2052" x="-0.0064820596" width="1.0129641" y="-0.080679543" height="1.1613591">
      <feGaussianBlur inkscape:collect="always" stdDeviation="1.0879395" id="feGaussianBlur2054" />
    </filter>
  </defs>
  <sodipodi:namedview id="base" pagecolor="#ffffff" bordercolor="#666666" borderopacity="1.0" inkscape:pageopacity="0.0" inkscape:pageshadow="2" inkscape:zoom="1.1242998" inkscape:cx="449.13078" inkscape:cy="209.96146" inkscape:document-units="px" inkscape:current-layer="layer3" showgrid="false" units="px" inkscape:window-width="1920" inkscape:window-height="1017" inkscape:window-x="1912" inkscape:window-y="-8" inkscape:window-maximized="1" inkscape:measure-start="357.973,190" inkscape:measure-end="602.027,290" />
  <metadata id="metadata7">
    <rdf:RDF>
      <cc:Work rdf:about="">
        <dc:format>image/svg+xml</dc:format>
        <dc:type rdf:resource="http://purl.org/dc/dcmitype/StillImage" />
        <dc:title />
      </cc:Work>
    </rdf:RDF>
  </metadata>
  <g inkscape:groupmode="layer" id="layer0" inkscape:label="Background" transform="translate(0,43)">
    <rect style="fill:#eee;fill-opacity:1;stroke:none;stroke-width:1.19724989" id="box-r0" width="1110" height="523" x="0" y="-43" />
    <rect style="fill:#212121;fill-opacity:1;filter:url(#filter1990)" y="25" x="25" height="430" width="910" id="box-r1-s" transform="matrix(1.1554096,0,0,-1.0827655,0.40425318,478.3637)" />
    <rect id="box-r1" width="1050" height="463" x="30.000832" y="-13" style="fill:#eee;fill-opacity:1;stroke:none;stroke-width:1.14336967" />
    <path sodipodi:nodetypes="ccccccccccc" inkscape:connector-curvature="0" id="box-p2-s" d="m 480,110 c -52.98909,0.0298 -98.80437,31.43469 -120,80 H -50 v 100 h 410 c 21.18108,48.53209 67.04722,79.9305 120,80 52.98909,-0.0298 98.80437,-31.43469 120,-80 h 410 V 190 H 600 C 578.81892,141.46792 532.95278,110.0695 480,110 Z" style="fill:#212121;fill-opacity:1;filter:url(#filter2022)" transform="matrix(1.1252929,0,0,1.0886079,15.359825,-42.765893)" />
    <path style="opacity:1;fill:#fafafa;fill-opacity:1;stroke:none;stroke-width:17.84390831;stroke-linecap:square;stroke-miterlimit:4;stroke-dasharray:none" d="M 554.99999,76.854165 C 494.51244,76.886635 444.19503,111.10488 420,164.02083 H -50 v 108.95834 h 470 c 24.17842,52.87975 74.5539,87.09094 134.99999,87.16666 C 615.48752,360.11333 665.80498,325.89512 690,272.97917 h 470 V 164.02083 H 690 C 665.8216,111.14109 615.44609,76.929892 554.99999,76.854165 Z" id="box-p2" inkscape:connector-curvature="0" sodipodi:nodetypes="ccccccccccc" />
    <rect y="406" x="315" height="15" width="330" id="box-r2-s" style="fill:#212121;fill-opacity:1;filter:url(#filter2026)" transform="matrix(1.1507266,0,0,1.07702,2.6512274,-34.05387)" />
    <rect style="fill:url(#linearGradient6284);fill-opacity:1;stroke:none;stroke-width:1.1305244" id="box-r2" width="379.73981" height="16.1553" x="365.1301" y="400.70206" />
  </g>
  <g inkscape:label="Symbol" inkscape:groupmode="layer" id="layer1" style="display:inline" transform="translate(0,43)" sodipodi:insensitive="true">
    <g id="layer1-0" transform="matrix(0.24489796,0,0,0.24489796,429.61224,93.112239)">
      <circle id="symbol-s" cx="512" cy="512" style="filter:url(#filter1938)" r="490" />
      <g id="symbol">
        <circle cy="510" cx="510" id="symbol-c0" style="fill:white;stroke-width:0.9885965" r="469.58334" />
        <path style="fill:black" d="M 893.9998,257.27945 766.7206,130.00023 604.086,419.914 Z" id="symbol-p1" inkscape:connector-curvature="0" sodipodi:nodetypes="cccc" />
        <path style="fill:black" d="M 766.7206,904 893.99982,776.72077 604.086,614.08619 Z" id="symbol-p2" inkscape:connector-curvature="0" sodipodi:nodetypes="cccc" />
        <path style="fill:black" d="M 130,776.72077 257.27933,904 419.914,614.08622 Z" id="symbol-p3" inkscape:connector-curvature="0" sodipodi:nodetypes="cccc" />
        <path style="fill:black" d="M 257.27922,130.00023 130,257.27945 419.91378,419.914 Z" id="symbol-p4" inkscape:connector-curvature="0" sodipodi:nodetypes="cccc" />
        <path transform="matrix(0.95703121,0,0,0.95703121,21.999999,21.999999)" id="symbol-p0" d="M 512,0 A 511.99999,511.99999 0 0 0 0,512 511.99999,511.99999 0 0 0 512,1024 511.99999,511.99999 0 0 0 1024,512 511.99999,511.99999 0 0 0 512,0 Z m 0,64 A 447.99999,447.99999 0 0 1 960,512 447.99999,447.99999 0 0 1 512,960 447.99999,447.99999 0 0 1 64,512 447.99999,447.99999 0 0 1 512,64 Z" style="fill:black" inkscape:connector-curvature="0" />
        <circle r="85" id="symbol-c1" style="fill:black" cx="512" cy="210" />
        <circle cy="512" cx="815" style="fill:black" id="symbol-c2" r="85" />
        <circle r="85" id="symbol-c3" style="fill:black" cx="512" cy="815" />
        <circle cy="512" cx="210" style="fill:black" id="symbol-c4" r="85" />
        <g id="military-logo">
          <path style="fill:none;stroke:black;stroke-width:10" d="M 590.67434,557.554 512.01469,602.92378 433.32601,557.605 H 316.251 V 466.916 H 433.29699 L 511.95664,421.54643 590.6453,466.866 H 707.749 v 90.688 z" id="ml-p0" inkscape:connector-curvature="0" sodipodi:nodetypes="ccccccccccc" />
          <circle id="ml-c0" style="fill:black" cx="512" cy="462" r="24" />
          <circle id="ml-c1" style="fill:black" cx="557" cy="512" r="24" />
          <circle id="ml-c2" style="fill:black" cx="512" cy="562" r="24" />
          <circle id="ml-c3" style="fill:black" cx="466" cy="512" r="24" />
          <rect y="471" x="321" height="41" width="114" id="ml-r0" style="fill:blue" />
          <rect y="512" x="321" height="41" width="114" id="ml-r1" style="fill:red" />
          <rect style="fill:blue" id="ml-r2" width="114" height="41" x="589" y="471" />
          <rect y="512" x="589" height="41" width="114" id="ml-r3" style="fill:#f44336;fill-opacity:1;stroke:none" />
        </g>
      </g>
    </g>
  </g>
  <g inkscape:groupmode="layer" id="layer3" inkscape:label="Text" transform="translate(0,43)" style="display:inline">
    <text id="layer3-t0-s" y="426.98727" x="555" style="font-style:normal;font-weight:normal;text-align:end;fill:#212121;stroke:none;filter:url(#filter2052)" xml:space="preserve"><tspan id="t0-s-t0" style="font-size:40px;text-align:center;text-anchor:middle" y="426.98727" x="555" sodipodi:role="line">⌬                                   ⌬</tspan></text>
    <text xml:space="preserve" style="font-style:normal;font-weight:normal;text-align:end;fill:black;stroke:none" x="555" y="426.98727" id="layer3-t0"><tspan sodipodi:role="line" x="555" y="426.98727" style="font-size:40px;text-align:center;text-anchor:middle" id="t0-t0">⌬                                   ⌬</tspan></text>
    <text id="layer3-t1-s" y="260.71191" x="279.24622" style="font-style:normal;font-weight:normal;font-size:120px;text-align:end;fill:#212121;stroke:none;filter:url(#filter2038)" xml:space="preserve"><tspan style="font-style:normal;font-variant:normal;font-weight:normal;font-stretch:normal;font-size:118.75px;font-family:Roboto;-inkscape-font-specification:Roboto;text-align:center;text-anchor:middle" y="260.71191" x="293.974" id="t1-s-t0" sodipodi:role="line">VOID </tspan></text>
    <text xml:space="preserve" style="font-style:normal;font-weight:normal;font-size:120px;text-align:end;fill:black;stroke:none" x="279.18823" y="260.71191" id="layer3-t1"><tspan sodipodi:role="line" id="t1-t0" x="293.91602" y="260.71191" style="font-style:normal;font-variant:normal;font-weight:normal;font-stretch:normal;font-size:118.75px;font-family:Roboto;-inkscape-font-specification:Roboto;text-align:center;text-anchor:middle">VOID </tspan></text>
    <text xml:space="preserve" style="font-style:normal;font-variant:normal;font-weight:normal;font-stretch:normal;font-size:120px;line-height:1.5px;font-family:Roboto;-inkscape-font-specification:Roboto;text-align:center;letter-spacing:0px;word-spacing:0px;text-anchor:middle;fill:black;fill-opacity:1;stroke:none;stroke-width:1px;stroke-linecap:butt;stroke-linejoin:miter;stroke-opacity:1" x="829.50195" y="261.15625" id="text879"><tspan sodipodi:role="line" id="tspan877" x="829.50195" y="261.15625">INC.</tspan><tspan sodipodi:role="line" x="829.50195" y="262.65625" id="tspan881" /></text>
    <text xml:space="preserve" style="font-style:normal;font-weight:normal;font-size:120px;text-align:end;fill:#212121;stroke:none;filter:url(#filter2038)" x="829.50714" y="260.71191" id="text893"><tspan sodipodi:role="line" x="829.50714" y="260.71191" style="font-style:normal;font-variant:normal;font-weight:normal;font-stretch:normal;font-size:118.75px;font-family:Roboto;-inkscape-font-specification:Roboto;text-align:center;text-anchor:middle;fill:black" id="tspan895">INC.</tspan></text>
  </g>
</svg>
